<?xml version="1.0" encoding="UTF-8" standalone="no" ?>
<!DOCTYPE svg PUBLIC "-//W3C//DTD SVG 1.1//EN" "http://www.w3.org/Graphics/SVG/1.1/DTD/svg11.dtd">
<svg xmlns="http://www.w3.org/2000/svg" xmlns:xlink="http://www.w3.org/1999/xlink" version="1.1" width="1080" height="1080" viewBox="0 0 1080 1080" xml:space="preserve">
<desc>Created with Fabric.js 4.2.0</desc>
<defs>
</defs>
<g transform="matrix(1 0 0 1 540 540)" id="4fe47cef-c6c8-4307-8d56-26400855ddd6"  >
<rect style="stroke: none; stroke-width: 1; stroke-dasharray: none; stroke-linecap: butt; stroke-dashoffset: 0; stroke-linejoin: miter; stroke-miterlimit: 4; fill: rgb(255,255,255); fill-rule: nonzero; opacity: 1;" vector-effect="non-scaling-stroke"  x="-540" y="-540" rx="0" ry="0" width="1080" height="1080" />
</g>
<g transform="matrix(Infinity NaN NaN Infinity 0 0)" id="dda76c83-be5e-4087-9649-5728643ef397"  >
</g>
<g transform="matrix(49.76 0 0 49.76 540 540)" id="91567d3e-a788-4de5-9155-c264e4303495"  >
<path style="stroke: rgb(0,0,0); stroke-width: 0; stroke-dasharray: none; stroke-linecap: butt; stroke-dashoffset: 0; stroke-linejoin: miter; stroke-miterlimit: 4; fill: rgb(140,140,140); fill-rule: nonzero; opacity: 1;" vector-effect="non-scaling-stroke"  transform=" translate(-11.09, -10.92)" d="M 11.087 12.263 C 15.829078649952406 12.262999967844458 19.673447760725523 16.10692138220314 19.674 20.849000000000004 L 19.674 21.349 L 2.5 21.349 L 2.5 20.849 C 2.5005522392744783 16.10692138220314 6.344921350047591 12.262999967844458 11.086999999999996 12.262999999999998 z M 11.087 13.263 C 7.180024468906797 13.263314157916772 3.9118985242704962 16.23024629197748 3.5349999999999984 20.119000000000007 L 3.516 20.349 L 18.657 20.349 L 18.639 20.119 C 18.27111688463107 16.32339125053911 15.143397169383714 13.390431692734964 11.331999999999997 13.267 z M 11.004 0.5 C 12.907140752156618 0.4738045459661736 14.677032806805343 1.4741125150132963 15.636245492465008 3.1180534957059955 C 16.595458178124673 4.761994476398694 16.595458178124673 6.795005523601308 15.636245492465008 8.438946504294007 C 14.677032806805343 10.082887484986706 12.907140752156616 11.083195454033827 11.003999999999998 11.057 C 8.117096433686168 11.017263711664118 5.797655006709757 8.665677025020502 5.797655006709757 5.7785 C 5.797655006709757 2.8913229749794986 8.117096433686168 0.5397362883358827 11.004 0.5 z M 11.004 1.5 C 9.459850036006333 1.47639215226567 8.022786077450215 2.2866670296017144 7.243815659002216 3.6201442618630075 C 6.464845240554219 4.953621494124301 6.464845240554219 6.603378505875705 7.243815659002219 7.936855738136997 C 8.022786077450219 9.27033297039829 9.459850036006337 10.080607847734331 11.004000000000003 10.057 C 13.341447505028249 10.021263765778954 15.217587845166218 8.116220667059922 15.217587845166218 5.7785 C 15.217587845166218 3.440779332940078 13.341447505028249 1.535736234221046 11.004 1.5 z" stroke-linecap="round" />
</g>
</svg>