<?xml version="1.0" encoding="UTF-8" standalone="no" ?>
<!DOCTYPE svg PUBLIC "-//W3C//DTD SVG 1.1//EN" "http://www.w3.org/Graphics/SVG/1.1/DTD/svg11.dtd">
<svg xmlns="http://www.w3.org/2000/svg" xmlns:xlink="http://www.w3.org/1999/xlink" version="1.1" width="1080" height="900" viewBox="0 0 1080 900" xml:space="preserve">
<desc>Created with Fabric.js 4.2.0</desc>
<defs>
</defs>
<g transform="matrix(1 0 0 1 540 450)" id="01e4605d-3e4f-4e62-921b-7874012d96c9"  >
<rect style="stroke: none; stroke-width: 1; stroke-dasharray: none; stroke-linecap: butt; stroke-dashoffset: 0; stroke-linejoin: miter; stroke-miterlimit: 4; fill: rgb(255,255,255); fill-rule: nonzero; opacity: 1;" vector-effect="non-scaling-stroke"  x="-540" y="-450" rx="0" ry="0" width="1080" height="900" />
</g>
<g transform="matrix(Infinity NaN NaN Infinity 0 0)" id="e4558f81-fe2a-4fff-9ab3-26dd6fbc6d89"  >
</g>
<g transform="matrix(57.34 0 0 55.1 540 450)" id="700cf2c7-ed96-44f6-bf9e-2d13d0159acc"  >
<path style="stroke: rgb(0,0,0); stroke-width: 0; stroke-dasharray: none; stroke-linecap: butt; stroke-dashoffset: 0; stroke-linejoin: miter; stroke-miterlimit: 4; fill: rgb(0,0,0); fill-rule: nonzero; opacity: 1;" vector-effect="non-scaling-stroke"  transform=" translate(-9.05, -10.21)" d="M 14.17 15.42 C 14.428989078770154 15.419523226484351 14.645474351763168 15.616891640443445 14.66887527347765 15.874821799785293 C 14.692276195192132 16.13275195912714 14.51484612418087 16.36585866034469 14.26 16.412 L 14.17 16.419999999999998 L 1 16.419999999999998 C 0.7410109212298424 16.420476773515652 0.5245256482368228 16.223108359556555 0.5011247265223402 15.965178200214705 C 0.4777238048078577 15.707248040872853 0.6551538758191251 15.474141339655304 0.9099999999999996 15.427999999999997 L 1 15.42 L 14.17 15.42 z M 17.097 9.66 C 17.353945453569917 9.662231587972235 17.56736800815924 9.858856577630602 17.590608351061228 10.114758575584752 C 17.61384869396322 10.370660573538903 17.439339642096744 10.602516486084275 17.187 10.651 L 17.097 10.658999999999999 L 1 10.658999999999999 C 0.7430545464300833 10.656768412027764 0.5296319918407637 10.460143422369397 0.5063916489387722 10.204241424415248 C 0.4831513060367808 9.948339426461096 0.6576603579032583 9.716483513915724 0.91 9.668 L 1 9.659 L 17.097 9.659 z M 17.097 4 C 17.355989078770158 3.999523226484349 17.572474351763173 4.196891640443444 17.595875273477656 4.454821799785294 C 17.61927619519214 4.712751959127143 17.441846124180874 4.94585866034469 17.187 4.992 L 17.097 5 L 1 5 C 0.7410109212298444 5.000476773515651 0.5245256482368276 4.803108359556556 0.5011247265223453 4.545178200214707 C 0.4777238048078629 4.287248040872857 0.6551538758191277 4.05414133965531 0.9099999999999998 4.008 L 1 4 L 17.097 4 z" stroke-linecap="round" />
</g>
</svg>