<?xml version="1.0" encoding="UTF-8" standalone="no" ?>
<!DOCTYPE svg PUBLIC "-//W3C//DTD SVG 1.1//EN" "http://www.w3.org/Graphics/SVG/1.1/DTD/svg11.dtd">
<svg xmlns="http://www.w3.org/2000/svg" xmlns:xlink="http://www.w3.org/1999/xlink" version="1.1" width="1080" height="1080" viewBox="0 0 1080 1080" xml:space="preserve">
<desc>Created with Fabric.js 4.2.0</desc>
<defs>
</defs>
<rect x="0" y="0" width="100%" height="100%" fill="transparent"></rect>
<g transform="matrix(1 0 0 1 540 540)" id="998306eb-696c-4a42-9856-b453ce027be7"  >
<rect style="stroke: none; stroke-width: 1; stroke-dasharray: none; stroke-linecap: butt; stroke-dashoffset: 0; stroke-linejoin: miter; stroke-miterlimit: 4; fill: rgb(255,255,255); fill-rule: nonzero; opacity: 1;" vector-effect="non-scaling-stroke"  x="-540" y="-540" rx="0" ry="0" width="1080" height="1080" />
</g>
<g transform="matrix(1 0 0 1 540 540)" id="150fd6d8-06f3-4573-b0b2-9375c07576a5"  >
</g>
<g transform="matrix(22.23 0 0 24.85 539.8 545.09)" id="092fcbd3-28fa-40aa-b76f-f756824b2bba"  >
<path style="stroke: rgb(0,0,0); stroke-width: 0; stroke-dasharray: none; stroke-linecap: butt; stroke-dashoffset: 0; stroke-linejoin: miter; stroke-miterlimit: 4; fill: rgb(0,0,0); fill-rule: nonzero; opacity: 1;" vector-effect="non-scaling-stroke"  transform=" translate(-23.42, -20.98)" d="M 31.336 4.949 C 31.336 8.024000000000001 24.439 9.866 15.745 9.866 C 7.05 9.866 0.15 8.024 0.15 4.949 C 0.151 1.875 7.054 0.032 15.745 0.032 C 24.436 0.032 31.336 1.875 31.336 4.949 z M 29.336 4.949 C 29.336 4.539 28.096 3.7539999999999996 25.790999999999997 3.139 C 23.164999999999996 2.437 19.575999999999997 2.032 15.744999999999997 2.032 C 11.914999999999997 2.032 8.324999999999998 2.4370000000000003 5.697999999999997 3.138 C 3.391999999999997 3.754 2.1509999999999967 4.54 2.1509999999999967 4.948 C 2.1509999999999967 5.359 3.3909999999999965 6.144 5.697999999999997 6.760000000000001 C 8.324999999999996 7.461 11.913999999999998 7.8660000000000005 15.744999999999997 7.8660000000000005 C 19.575999999999997 7.8660000000000005 23.165 7.461 25.790999999999997 6.760000000000001 C 28.096999999999998 6.1450000000000005 29.336 5.360000000000001 29.336 4.949000000000001 z M 29.336 4.949 C 29.336 4.396715250169207 29.783715250169205 3.949 30.336 3.949 C 30.88828474983079 3.949 31.336 4.396715250169207 31.336 4.949 L 31.336 10.431999999999999 C 31.336 13.595999999999998 24.462 15.348999999999998 15.745 15.348999999999998 C 7.025 15.35 0.15 13.596 0.15 10.432 L 0.15 4.95 C 0.15 4.397715250169207 0.5977152501692066 3.95 1.15 3.95 C 1.7022847498307934 3.95 2.15 4.397715250169206 2.15 4.95 L 2.15 10.433 C 2.15 10.903 3.423 11.695 5.814 12.304 C 8.428 12.971 12 13.35 15.744 13.35 C 19.486 13.35 23.058 12.969999999999999 25.672 12.304 C 28.062 11.694 29.335 10.904 29.335 10.434000000000001 L 29.335 4.948 z M 15.512 31.754 C 6.908 31.723 0.152 29.972 0.152 26.837 L 0.152 15.941 L 0.152 10.387 C 0.152 9.834715250169207 0.5997152501692066 9.387 1.152 9.387 C 1.7042847498307934 9.387 2.1519999999999997 9.834715250169207 2.152 10.387 L 2.152 15.895 C 2.196 16.367 3.466 17.141 5.8149999999999995 17.741 C 8.43 18.408 12.001999999999999 18.787 15.745 18.787 C 19.486 18.787 23.058 18.407 25.673000000000002 17.741 C 28.044 17.136 29.316000000000003 16.351 29.336000000000002 15.881 L 29.336000000000002 15.870000000000001 L 29.336000000000002 10.388000000000002 C 29.336000000000002 9.835715250169208 29.78371525016921 9.388000000000002 30.336000000000002 9.388000000000002 C 30.888284749830795 9.388000000000002 31.336000000000002 9.835715250169208 31.336000000000002 10.388000000000002 L 31.336000000000002 21.138 C 39.919000000000004 21.17 46.696 23.008000000000003 46.696 26.054000000000002 L 46.696 37.02 C 46.696 40.184000000000005 39.823 41.937000000000005 31.102999999999998 41.937000000000005 C 22.385999999999996 41.937000000000005 15.512999999999998 40.184000000000005 15.512999999999998 37.02 L 15.512999999999998 31.753000000000004 z M 15.512 29.754 L 15.512 26.27 C 9.725000000000001 26.25 4.774000000000001 25.45 2.152000000000001 23.976 L 2.152000000000001 26.837 C 2.152000000000001 27.307 3.426000000000001 28.097 5.816000000000001 28.707 C 8.376000000000001 29.36 11.856000000000002 29.738 15.512 29.754 z M 17.512 30.794 L 17.512 31.537 C 17.512 32.007 18.786 32.797 21.175 33.407 C 23.79 34.074 27.362000000000002 34.45399999999999 31.103 34.45399999999999 C 34.846000000000004 34.45399999999999 38.419000000000004 34.07399999999999 41.033 33.407 C 43.423 32.797 44.697 32.007 44.697 31.536999999999995 L 44.697 28.633999999999997 C 42.037000000000006 30.128999999999998 36.980000000000004 30.970999999999997 31.103 30.970999999999997 C 25.229000000000003 30.970999999999997 20.173000000000002 30.128999999999998 17.513 28.632999999999996 L 17.513 30.696999999999996 C 17.51450968042792 30.728982194257853 17.51450968042792 30.76101780574214 17.513 30.792999999999996 z M 29.336 21.164 L 29.336 18.493000000000002 C 26.679 19.987000000000002 21.631 20.787000000000003 15.745 20.787000000000003 C 9.858 20.787000000000003 4.808999999999999 19.987000000000002 2.1519999999999992 18.493000000000002 L 2.1519999999999992 21.354000000000003 C 2.1519999999999992 21.823000000000004 3.4259999999999993 22.614000000000004 5.815999999999999 23.224000000000004 C 8.43 23.891000000000005 12.001999999999999 24.271000000000004 15.744 24.271000000000004 C 15.951 24.271000000000004 16.164 24.268000000000004 16.401 24.264000000000003 C 18.346 22.452 23.289 21.344 29.336 21.164 z M 30.147 23.146 C 30.094825244550226 23.1510972890255 30.04233139835122 23.152100356150324 29.99 23.149 C 26.583 23.219 23.427999999999997 23.61 21.058 24.243000000000002 C 19.251 24.726000000000003 18.098 25.313000000000002 17.684 25.741000000000003 C 17.644000000000002 25.813000000000002 17.596 25.879000000000005 17.541 25.938000000000002 C 17.523093760168123 25.974127539026473 17.513201571454918 26.013696293879292 17.512 26.054000000000002 C 17.512 26.464000000000002 18.752 27.249000000000002 21.058 27.864 C 23.685 28.566000000000003 27.274 28.971 31.103 28.971 C 34.935 28.971 38.525 28.566 41.151 27.864 C 43.457 27.249000000000002 44.697 26.464000000000002 44.697 26.054000000000002 C 44.697 25.644000000000002 43.457 24.859 41.151 24.244000000000003 C 38.525000000000006 23.542 34.935 23.137000000000004 31.103 23.137000000000004 C 30.783 23.137000000000004 30.463 23.140000000000004 30.147000000000002 23.146000000000004 z M 44.697 34.159 C 42.040000000000006 35.653999999999996 36.991 36.454 31.103 36.454 C 25.217000000000002 36.454 20.168 35.654 17.513 34.159 L 17.513 37.021 C 17.513 37.491 18.785 38.281 21.175 38.891 C 23.789 39.558 27.361 39.937999999999995 31.103 39.937999999999995 C 34.847 39.937999999999995 38.419000000000004 39.55799999999999 41.033 38.891 C 43.423 38.281 44.697 37.491 44.697 37.021 L 44.697 34.159 z" stroke-linecap="round" />
</g>
</svg>